<?xml version="1.0" encoding="iso-8859-1"?>
<!-- Generator: Adobe Illustrator 19.0.0, SVG Export Plug-In . SVG Version: 6.00 Build 0)  -->
<svg version="1.1" id="Layer_1" xmlns="http://www.w3.org/2000/svg" xmlns:xlink="http://www.w3.org/1999/xlink" x="0px" y="0px"
	 viewBox="0 0 464 464" style="enable-background:new 0 0 464 464;" xml:space="preserve">
<path style="fill:#FFF8EF;" d="M16.634,128V59.2c0-24,19.2-43.2,43.2-43.2h56.8c24,0,43.2,19.2,43.2,43.2V128H16.634z M40.634,88v16
	h96V88H40.634z"/>
<polygon style="fill:#1D9AAE;" points="411.034,226.4 361.434,308 320.634,283.2 370.234,200.8 "/>
<polygon style="fill:#E94545;" points="331.034,176 279.834,258.4 267.834,233.6 251.034,198.4 283.034,147.2 "/>
<path style="fill:#42210B;" d="M426.234,216.8c4,2.4,4.8,7.2,2.4,11.2l-58.4,96c-0.8,1.6-3.2,3.2-4.8,3.2c-0.8,0-1.6,0-1.6,0
	c-1.6,0-3.2,0-4-1.6l-54.4-32.8c-4-2.4-4.8-7.2-2.4-11.2l58.4-96c0.8-1.6,3.2-3.2,4.8-3.2c2.4-0.8,4,0,6.4,0.8L426.234,216.8z
	 M361.434,308l49.6-82.4l-40.8-24.8l-49.6,82.4L361.434,308z"/>
<polygon style="fill:#1D9AAE;" points="268.634,324.8 289.434,368 202.234,409.6 179.834,364 "/>
<path style="fill:#FFF8EF;" d="M426.234,216.8l-54.4-33.6c-1.6-0.8-4-1.6-6.4-0.8s-4,1.6-4.8,3.2l-58.4,96c-2.4,4-0.8,8.8,2.4,11.2
	l54.4,32.8c1.6,0.8,2.4,1.6,4,1.6c0.8,0,1.6,0,1.6,0c2.4-0.8,4-1.6,4.8-3.2l58.4-96C431.034,224,430.234,218.4,426.234,216.8z
	 M288.634,275.2l60.8-97.6c0.8-1.6,1.6-4,0.8-6.4c-0.8-2.4-1.6-4-4-4.8l-61.6-37.6c-4-2.4-8.8-0.8-11.2,2.4l-31.2,49.6l-9.6-19.2
	l24.8-38.4c0.8-1.6,1.6-4,0.8-6.4c-0.8-2.4-1.6-4-4-4.8l-64.8-38.4l-3.2-5.6l256.8,149.6l-74.4,123.2l-69.6-42.4L288.634,275.2z"/>
<polygon style="fill:#E94545;" points="224.634,230.4 248.634,281.6 176.634,316 176.634,252.8 "/>
<g>
	<polygon style="fill:#FF7D00;" points="239.834,122.4 224.634,144.8 203.034,100 	"/>
	<polygon style="fill:#FF7D00;" points="180.634,138.4 206.234,188 176.634,203.2 176.634,140.8 	"/>
</g>
<path style="fill:#FFF8EF;" d="M255.034,244l66.4,136l-129.6,61.6l-15.2-35.2v-12.8l15.2,29.6c1.6,2.4,4,4,7.2,4
	c0.8,0,2.4,0,3.2-0.8l101.6-48c4-1.6,5.6-6.4,4-10.4l-27.2-57.6c-1.6-4-6.4-5.6-10.4-4l-93.6,41.6v-14.4l85.6-41.6
	c4-1.6,5.6-6.4,4-10.4l-31.2-64.8c-1.6-4-6.4-5.6-10.4-4l-48,22.4v-14.4l44-21.6c4-1.6,5.6-6.4,3.2-10.4l-32-64
	c-1.6-4-6.4-5.6-10.4-3.2l-4.8,1.6v-40L255.034,244z"/>
<rect x="40.634" y="376" style="fill:#1D9AAE;" width="96" height="48"/>
<rect x="40.634" y="272" style="fill:#E94545;" width="96" height="56"/>
<rect x="40.634" y="168" style="fill:#FF7D00;" width="96" height="56"/>
<g>
	<rect x="40.634" y="88" style="fill:#42210B;" width="96" height="16"/>
	<path style="fill:#42210B;" d="M136.634,224v-56h-96v56H136.634z M32.634,152h112c4,0,8,4,8,8v72c0,4-4,8-8,8h-112c-4.8,0-8-4-8-8
		v-72C24.634,156,27.834,152,32.634,152z"/>
	<path style="fill:#42210B;" d="M136.634,272h-96v56h96V272z M144.634,256c4,0,8,4,8,8v72c0,4-4,8-8,8h-112c-4.8,0-8-4-8-8v-72
		c0-4,3.2-8,8-8H144.634z"/>
	<path style="fill:#42210B;" d="M136.634,376h-96v48h96V376z M144.634,360c4,0,8,4,8,8v64c0,4-4,8-8,8h-112c-4.8,0-8-4-8-8v-64
		c0-4,3.2-8,8-8H144.634z"/>
</g>
<path style="fill:#FFF8EF;" d="M24.634,432c0,4,3.2,8,8,8h112c4,0,8-4,8-8v-64c0-4-4-8-8-8h-112c-4.8,0-8,4-8,8V432z M144.634,152
	h-112c-4.8,0-8,4-8,8v72c0,4,3.2,8,8,8h112c4,0,8-4,8-8v-72C152.634,156,148.634,152,144.634,152z M160.634,448h-144V144h144v72v192
	V448z M24.634,264v72c0,4,3.2,8,8,8h112c4,0,8-4,8-8v-72c0-4-4-8-8-8h-112C27.834,256,24.634,260,24.634,264z"/>
<path style="fill:#42210B;" d="M224.634,144.8l15.2-23.2l-36.8-21.6L224.634,144.8z M279.834,258.4l51.2-82.4l-48-28.8l-32,52
	l16.8,35.2L279.834,258.4z M160.634,128V59.2c0-24-19.2-43.2-43.2-43.2h-56.8c-24.8,0-44,19.2-44,43.2V128H160.634z M202.234,409.6
	l87.2-41.6l-20.8-43.2l-89.6,39.2L202.234,409.6z M348.634,177.6l-60,97.6l12,24l69.6,42.4l74.4-123.2L187.034,68l3.2,5.6l64.8,38.4
	c1.6,0.8,3.2,3.2,4,4.8c0.8,2.4,0,4.8-0.8,6.4l-25.6,38.4l9.6,20l31.2-49.6c2.4-4,7.2-4.8,11.2-2.4l61.6,37.6c1.6,0.8,3.2,3.2,4,4.8
	C350.234,173.6,350.234,176,348.634,177.6z M180.634,138.4l-4,2.4v62.4l29.6-14.4L180.634,138.4z M160.634,408V216v-72h-144v304h144
	V408z M176.634,252.8V316l72-34.4l-24-50.4L176.634,252.8z M0.634,59.2c0-32.8,26.4-59.2,59.2-59.2h56.8c26.4,0,49.6,17.6,56.8,41.6
	l285.6,166.4c1.6,0.8,3.2,3.2,4,4.8c0.8,2.4,0,4-0.8,6.4l-83.2,136.8c-0.8,1.6-3.2,3.2-4.8,4c-0.8,0-1.6,0-1.6,0c-1.6,0-3.2,0-4-1.6
	l-56-32.8l26.4,54.4c0.8,1.6,0.8,4,0,6.4s-2.4,4-4,4.8l-144.8,68.8c-0.8,0.8-2.4,0.8-3.2,0.8s-1.6,0-3.2-0.8c-2.4-0.8-4-2.4-4.8-4
	l-3.2-8v8c0,4-4,8-8,8H8.634c-4.8,0-8-4-8-8V59.2z M176.634,220.8v14.4l48-22.4c4-1.6,8.8,0,10.4,4l31.2,64.8c1.6,4,0,8.8-4,10.4
	l-85.6,41.6V348l92.8-40.8c4-1.6,8.8,0,10.4,4l27.2,57.6c1.6,4,0,8.8-4,10.4l-101.6,48c-0.8,0.8-2.4,0.8-3.2,0.8
	c-3.2,0-5.6-1.6-7.2-4l-14.4-30.4v12.8l15.2,34.4l129.6-61.6l-66.4-136l-78.4-160v40l4-2.4c4-2.4,8.8-0.8,10.4,3.2l32,64
	c2.4,4,0,8.8-3.2,10.4L176.634,220.8z"/>
<path style="fill:#D9CDC1;" d="M16.634,59.2c0-24,19.2-43.2,43.2-43.2h56.8c24,0,43.2,19.2,43.2,43.2V128h-16V53.6
	c0.8-12-8.8-21.6-20.8-21.6h-68.8c-12,0-21.6,9.6-21.6,21.6V128h-16V59.2z"/>
<path style="fill:#42210B;" d="M88.634,80c-13.6,0-24-10.4-24-24s10.4-24,24-24s24,10.4,24,24S102.234,80,88.634,80z M88.634,48
	c-4.8,0-8,3.2-8,8s3.2,8,8,8s8-3.2,8-8S93.434,48,88.634,48z"/>
<g>
</g>
<g>
</g>
<g>
</g>
<g>
</g>
<g>
</g>
<g>
</g>
<g>
</g>
<g>
</g>
<g>
</g>
<g>
</g>
<g>
</g>
<g>
</g>
<g>
</g>
<g>
</g>
<g>
</g>
</svg>
